# xmcd CD database file
#
# Track frame offsets:
#	150
#	35344
#	62101
#	93828
#	123091
#	149894
#	192902
#	212861
#	242040
#	267087
#	292332
#	305317
#	338621
#
# Disc length: 4727 seconds
#
# Revision: 2
# Processed by: cddbd v1.5.2PL0 Copyright (c) Steve Scherf et al.
# Submitted via: CDex 1.50beta8
#
DISCID=c612750d
DTITLE=Various Artist - Jazz For More Vol.2
DYEAR=2006
DGENRE=Jazz
TTITLE0=Lars Bartkuhn - First Friendship
TTITLE1=The Louis Hayes Group - What's Goin On
TTITLE2=Robert Nacken - Housy September
TTITLE3=Needs - So Many Things - Karimi Jazz Version
TTITLE4=Beatfanatic - Mas Que Malandro
TTITLE5=Lars Bartkuhn - No Doubt About It
TTITLE6=Toninho Horta - Aquelas Coisas Todas (All Of Those Things)
TTITLE7=Quasimode - Down In The Village
TTITLE8=Povo - East On West
TTITLE9=Quasimode - Giant Black Shadow
TTITLE10=Laurel Masse - Four
TTITLE11=Robert Nacken - New Ballance 2005
TTITLE12=Lefties Soul Connection - Organ Donor
EXTD=YEAR: 2006
EXTT0=
EXTT1=
EXTT2=
EXTT3=
EXTT4=
EXTT5=
EXTT6=
EXTT7=
EXTT8=
EXTT9=
EXTT10=
EXTT11=
EXTT12=
PLAYORDER=
